<?xml version="1.0" standalone="no"?>
<!DOCTYPE svg PUBLIC "-//W3C//DTD SVG 20010904//EN"
 "http://www.w3.org/TR/2001/REC-SVG-20010904/DTD/svg10.dtd">
<svg version="1.0" xmlns="http://www.w3.org/2000/svg"
 width="800.000000pt" height="800.000000pt" viewBox="0 0 800.000000 800.000000"
 preserveAspectRatio="xMidYMid meet">
<metadata>
Created by potrace 1.14, written by Peter Selinger 2001-2017
</metadata>
<g transform="translate(0.000000,800.000000) scale(0.100000,-0.100000)"
fill="#000000" stroke="none">
<path d="M5370 7570 c-86 -29 -160 -124 -160 -207 0 -10 -16 -35 -36 -54 -70
-67 -81 -127 -41 -214 26 -55 88 -116 213 -210 43 -32 83 -62 88 -67 5 -4 -38
-4 -95 -1 -270 15 -543 -51 -725 -175 -87 -59 -185 -168 -228 -252 -20 -40
-36 -81 -36 -90 0 -10 -24 -53 -53 -96 -81 -119 -88 -137 -30 -81 27 26 52 44
56 41 4 -4 7 -30 7 -59 0 -72 24 -157 71 -253 70 -144 236 -291 380 -338 69
-23 151 -15 185 17 24 22 26 29 21 82 -12 137 -141 253 -207 187 -26 -26 -27
-90 -2 -113 22 -20 39 -22 45 -4 7 19 30 -7 25 -29 -6 -32 -58 -29 -105 5 -62
45 -88 107 -88 211 0 128 31 173 200 293 65 45 112 90 169 157 240 290 342
371 509 401 l67 13 138 -64 c145 -67 178 -87 127 -76 -16 3 -93 9 -170 12
-171 7 -294 -14 -408 -70 -237 -118 -287 -320 -134 -549 54 -79 122 -127 183
-127 48 0 69 20 80 76 20 106 -114 295 -162 229 -22 -30 -17 -60 11 -73 25
-11 35 -42 14 -42 -24 0 -50 23 -70 62 -43 85 4 225 105 314 60 53 186 117
271 139 70 18 217 20 283 4 59 -15 76 -29 36 -30 -18 -1 -11 -4 21 -9 50 -7
155 -47 155 -59 0 -3 -60 -6 -132 -6 -122 0 -137 -2 -188 -26 -140 -65 -207
-185 -166 -294 33 -84 107 -112 158 -57 86 91 88 222 4 222 -18 0 -39 -7 -46
-15 -11 -13 -9 -21 9 -46 18 -24 20 -33 10 -45 -10 -13 -14 -12 -30 2 -59 53
24 194 114 194 31 0 77 -36 77 -60 0 -13 -5 -17 -21 -13 -18 5 -20 2 -17 -22
4 -40 31 -54 57 -31 32 29 28 79 -9 109 -16 14 -30 28 -30 31 0 3 30 6 66 6
50 0 75 -5 100 -21 48 -29 59 -89 17 -89 -10 0 -14 6 -10 20 4 16 0 20 -17 20
-33 0 -60 -35 -59 -76 2 -76 78 -101 127 -43 39 46 46 99 20 163 -7 18 -3 19
57 12 120 -13 290 -66 419 -131 449 -224 702 -554 812 -1056 19 -90 22 -132
22 -309 -1 -217 -14 -322 -80 -620 -52 -233 -178 -565 -250 -660 -122 -160
-404 -402 -562 -484 -44 -22 -43 -3 2 60 136 192 157 227 144 235 -22 14 -32
11 -94 -33 -119 -85 -487 -385 -612 -499 -41 -38 -50 -50 -38 -55 29 -11 17
-30 -36 -55 -41 -19 -65 -40 -112 -102 -33 -43 -98 -112 -146 -152 -47 -41
-101 -93 -120 -117 -77 -98 -147 -170 -282 -293 -228 -209 -268 -248 -268
-259 0 -50 -419 -458 -550 -536 -30 -18 -85 -62 -122 -98 -46 -45 -71 -63 -83
-59 -9 4 -27 33 -41 64 -14 32 -41 79 -59 105 -19 26 -45 68 -59 95 -25 50
-259 318 -378 434 -37 37 -68 71 -68 76 0 5 -40 49 -90 97 -49 49 -88 92 -85
96 8 13 -388 391 -565 540 -125 105 -134 121 -17 32 32 -24 61 -41 65 -37 9 9
-38 51 -267 238 -191 158 -268 227 -588 536 -322 309 -456 491 -600 814 -59
131 -175 469 -218 632 -34 130 -36 134 -29 45 23 -307 228 -879 424 -1178 60
-94 203 -276 301 -385 120 -133 -3 -43 -181 134 -111 110 -164 186 -274 391
-105 198 -221 536 -273 798 -30 150 -42 394 -23 480 6 30 18 91 26 135 43 228
169 489 321 663 201 229 601 439 883 462 127 11 336 -3 472 -30 244 -50 443
-143 635 -297 116 -94 185 -168 263 -285 34 -51 64 -95 66 -97 2 -2 -3 17 -12
42 -14 43 -14 52 0 110 9 35 16 71 16 80 0 31 16 25 80 -30 79 -67 148 -113
171 -113 42 0 29 73 -32 178 -19 31 -82 105 -140 163 -95 94 -110 115 -142
188 -157 363 -518 657 -963 785 -133 38 -283 66 -355 66 -57 0 -250 -49 -379
-97 -146 -53 -402 -183 -530 -269 -301 -200 -558 -454 -818 -810 -45 -62 -82
-114 -82 -118 0 -22 37 5 106 76 255 265 318 327 406 398 115 94 217 164 225
156 4 -3 -16 -32 -44 -63 -27 -32 -75 -92 -106 -133 -31 -41 -93 -115 -137
-165 -85 -95 -175 -219 -231 -320 -18 -33 -47 -74 -65 -92 -32 -33 -69 -112
-135 -291 -41 -114 -46 -123 -58 -103 -11 17 -47 -135 -66 -273 -13 -93 -38
-185 -64 -234 -23 -44 -58 -35 -145 37 -26 23 -57 41 -67 41 -49 0 -79 -108
-86 -307 -6 -153 0 -182 26 -127 18 41 43 27 64 -36 10 -30 21 -80 25 -110 l5
-55 14 60 c47 206 125 116 248 -286 61 -201 66 -217 124 -367 57 -149 118
-326 161 -469 17 -58 36 -102 42 -100 6 1 23 -18 36 -43 48 -88 133 -230 138
-230 3 0 -28 64 -70 143 -89 169 -154 324 -161 381 -5 39 -3 37 30 -32 23 -47
43 -76 59 -84 15 -6 44 -42 68 -82 102 -172 267 -400 508 -700 116 -144 223
-270 184 -217 -7 9 -50 81 -98 160 -82 136 -102 182 -73 165 93 -55 165 -116
254 -215 56 -63 120 -132 144 -154 l42 -40 -43 62 c-73 105 -34 95 98 -26 152
-139 158 -137 31 9 -156 180 -379 452 -379 462 0 5 10 8 23 8 14 0 39 -16 62
-41 81 -83 236 -222 242 -216 3 4 -10 26 -29 49 -69 86 -48 69 123 -101 96
-95 196 -188 224 -207 27 -18 63 -51 80 -72 120 -150 223 -255 290 -297 39
-25 77 -45 84 -45 7 0 -25 42 -69 92 -45 51 -90 109 -100 128 -10 20 -26 42
-34 49 -9 8 -16 18 -16 25 0 6 46 -34 102 -89 56 -55 86 -81 67 -59 -19 23
-161 161 -315 308 -258 243 -326 314 -276 287 23 -12 249 -209 441 -385 273
-250 279 -253 66 -35 -218 221 -312 325 -302 335 11 11 182 -150 536 -506 366
-367 401 -396 151 -125 -74 81 -146 160 -160 178 l-25 31 25 -17 c22 -14 78
-73 385 -407 39 -41 105 -116 149 -165 43 -50 179 -193 301 -320 122 -126 291
-304 376 -393 l154 -164 155 159 c212 218 528 518 745 708 44 39 89 78 100 89
43 39 266 227 409 344 169 138 208 174 126 117 -115 -81 -141 -96 -152 -93
-17 6 245 266 495 492 114 104 207 190 207 193 0 5 -8 0 -68 -41 -73 -50 -56
-22 40 65 524 475 800 821 953 1194 21 50 47 108 58 130 11 22 21 51 23 65 2
14 19 82 39 150 35 125 68 279 102 485 27 166 24 462 -6 614 -86 433 -344 832
-727 1121 -198 150 -403 258 -555 294 -108 26 -153 52 -197 117 -25 36 -26 84
-2 84 8 0 14 -8 14 -17 -3 -28 54 -24 65 4 20 54 -16 98 -80 98 -51 0 -89 -32
-89 -75 0 -47 14 -78 56 -124 20 -23 31 -41 24 -41 -29 0 -199 64 -245 92
-121 74 -145 107 -106 142 23 21 50 18 65 -7 9 -14 7 -21 -8 -32 -18 -13 -17
-14 8 -21 42 -10 97 5 128 36 86 87 -25 217 -168 195 -39 -5 -57 -16 -93 -51
-40 -41 -45 -43 -57 -27 -22 31 -63 144 -85 237 -26 113 -21 152 24 171 22 9
36 10 45 3 19 -16 14 -36 -10 -40 -13 -2 -24 -11 -26 -20 -3 -15 4 -18 43 -18
77 0 131 39 142 103 10 66 -83 138 -179 137 -13 -1 -48 -9 -78 -20z m-4054
-4512 c55 -72 236 -287 337 -399 113 -126 106 -130 -17 -9 -132 129 -212 222
-309 359 -61 84 -76 111 -63 111 3 0 26 -28 52 -62z"/>
<path d="M5692 6505 c-186 -64 -292 -185 -292 -337 0 -116 49 -235 128 -311
31 -30 46 -38 68 -35 83 9 86 227 4 253 -15 5 -28 1 -39 -10 -15 -15 -15 -17
3 -30 21 -16 15 -45 -9 -45 -49 0 -66 189 -27 291 47 119 117 191 225 230 29
10 43 18 32 18 -11 0 -53 -11 -93 -24z"/>
<path d="M6965 5613 c72 -179 101 -421 74 -620 -6 -43 -23 -132 -38 -198 -33
-140 -44 -195 -37 -195 8 0 74 296 91 413 18 119 18 164 -4 377 -6 64 -17 104
-44 163 -20 42 -39 77 -43 77 -3 0 -3 -8 1 -17z"/>
<path d="M7631 5249 c-1 -43 5 -77 14 -95 15 -28 15 -28 9 26 -4 30 -10 73
-14 95 -7 36 -8 34 -9 -26z"/>
<path d="M7656 4936 c-16 -249 -104 -589 -238 -926 -28 -69 -57 -138 -65 -155
-28 -59 16 5 52 75 100 198 179 443 235 735 19 101 40 375 28 375 -3 0 -8 -47
-12 -104z"/>
<path d="M7638 4535 c-4 -11 -12 -47 -18 -80 -16 -83 -86 -336 -114 -415 -38
-103 -95 -237 -143 -335 -24 -49 -37 -81 -28 -70 30 38 136 255 179 367 24 62
65 179 90 261 41 128 46 157 44 220 -2 42 -6 64 -10 52z"/>
<path d="M7698 4453 c-14 -16 -59 -147 -58 -169 1 -18 41 68 59 126 11 33 18
60 17 60 -2 0 -10 -8 -18 -17z"/>
<path d="M6881 4389 c-6 -18 -11 -37 -10 -43 0 -6 7 7 15 28 8 22 12 41 10 43
-2 2 -9 -10 -15 -28z"/>
<path d="M6483 3807 c-59 -86 -178 -230 -272 -331 -121 -130 -106 -123 30 14
123 124 309 352 309 379 0 25 -18 7 -67 -62z"/>
<path d="M7433 3558 c-5 -7 -23 -31 -38 -53 -27 -37 -27 -38 -5 -18 14 12 33
36 43 52 18 31 18 42 0 19z"/>
<path d="M5720 2782 c-264 -235 -687 -663 -916 -927 -392 -450 -442 -511 -432
-521 3 -2 27 21 54 53 292 344 838 915 1132 1183 102 93 351 360 335 360 -4 0
-82 -67 -173 -148z"/>
<path d="M6982 2814 l-97 -97 80 71 c88 77 133 122 121 122 -4 0 -51 -43 -104
-96z"/>
</g>
</svg>
